<svg id="Outline" height="512" viewBox="0 0 32 32" width="512" xmlns="http://www.w3.org/2000/svg" fill="#ffd04f"><g><path d="m16 12c2.75684 0 5-2.24316 5-5s-2.24316-5-5-5-5 2.24316-5 5 2.24316 5 5 5zm0-8c1.6543 0 3 1.3457 3 3s-1.3457 3-3 3-3-1.3457-3-3 1.3457-3 3-3z"/><path d="m5.5 13c2.20557 0 4-1.79395 4-4s-1.79443-4-4-4-4 1.79395-4 4 1.79443 4 4 4zm0-6c1.10303 0 2 .89746 2 2s-.89697 2-2 2-2-.89746-2-2 .89697-2 2-2z"/><path d="m26.5 13c2.20557 0 4-1.79395 4-4s-1.79443-4-4-4-4 1.79395-4 4 1.79443 4 4 4zm0-6c1.10303 0 2 .89746 2 2s-.89697 2-2 2-2-.89746-2-2 .89697-2 2-2z"/><path d="m30.3916 16.61719c-1.02978-1.04297-2.41211-1.61719-3.8916-1.61719-1.67535 0-3.22559.77307-4.24927 2.02094-1.4671-1.83796-3.72174-3.02094-6.25073-3.02094-2.5274 0-4.78088 1.18134-6.24805 3.01733-.11334-.13708-.23169-.27118-.35986-.39917-.98925-1.00292-2.31541-1.57617-3.73484-1.61621-3.0908-.08719-5.65725 2.69363-5.65725 5.71192v4.28613c0 1.6543 1.3457 3 3 3h5.18433c.41412 1.1615 1.51373 2 2.81567 2h10c1.30194 0 2.40161-.8385 2.81573-2h5.18427c1.6543 0 3-1.3457 3-3v-4.5c0-1.47949-.57422-2.86133-1.6084-3.88281zm-28.3916 8.38281s0-4.28366 0-4.28613c0-1.92799 1.62805-3.75083 3.60153-3.71192 1.26988.02504 2.45113.80789 3.00943 1.93823-.39209.94336-.61096 1.9762-.61096 3.05982v4h-5c-.55127 0-1-.44824-1-1zm19 3h-10c-.55127 0-1-.44824-1-1v-5c0-3.30859 2.69141-6 6-6s6 2.69141 6 6v5c0 .55176-.44873 1-1 1zm9-3c0 .55176-.44873 1-1 1h-5v-4c0-1.08844-.22021-2.12598-.61566-3.07269.5805-1.1638 1.78482-1.92729 3.11561-1.92731 1.86605-.00003 3.50005 1.64193 3.50005 3.5z"/></g></svg>